<svg xmlns="http://www.w3.org/2000/svg" viewBox="0 0 400 300" width="400" height="300">
  <defs>
    <linearGradient id="bg_감기" x1="0%" y1="0%" x2="100%" y2="100%">
      <stop offset="0%" style="stop-color:#2d5a3d;stop-opacity:1" />
      <stop offset="100%" style="stop-color:#1a3a2a;stop-opacity:1" />
    </linearGradient>
    <linearGradient id="shine_감기" x1="0%" y1="0%" x2="100%" y2="100%">
      <stop offset="0%" style="stop-color:rgba(255,255,255,0.12);stop-opacity:1" />
      <stop offset="100%" style="stop-color:rgba(255,255,255,0);stop-opacity:1" />
    </linearGradient>
  </defs>
  <rect width="400" height="300" fill="url(#bg_감기)"/>
  <rect width="400" height="300" fill="url(#shine_감기)"/>
  
  <circle cx="200" cy="120" r="70" fill="rgba(255,255,255,0.12)"/>
  <circle cx="200" cy="120" r="50" fill="rgba(255,255,255,0.15)"/>
  <!-- 마스크 -->
  <rect x="160" y="100" width="80" height="45" rx="22" fill="rgba(255,255,255,0.9)"/>
  <line x1="160" y1="118" x2="240" y2="118" stroke="rgba(45,90,61,0.3)" stroke-width="1.5"/>
  <path d="M160 112 Q145 122 160 132" stroke="rgba(255,255,255,0.9)" stroke-width="3" fill="none" stroke-linecap="round"/>
  <path d="M240 112 Q255 122 240 132" stroke="rgba(255,255,255,0.9)" stroke-width="3" fill="none" stroke-linecap="round"/>
  <!-- 별/반짝임 -->
  <circle cx="148" cy="82" r="4" fill="rgba(255,255,255,0.5)"/>
  <circle cx="258" cy="92" r="3" fill="rgba(255,255,255,0.4)"/>
  <circle cx="165" cy="68" r="2.5" fill="rgba(255,255,255,0.35)"/>
  <!-- 물결 -->
  <path d="M120 200 Q160 190 200 200 Q240 210 280 200" stroke="rgba(255,255,255,0.2)" stroke-width="2" fill="none"/>
  <path d="M130 215 Q170 205 210 215 Q250 225 290 215" stroke="rgba(255,255,255,0.15)" stroke-width="2" fill="none"/>

</svg>